# xmcd
#
# Track frame offsets: 
#        182
#        10362
#        23670
#        37680
#        45470
#        56075
#        68002
#        79392
#        92245
#        108267
#        121160
#        133672
#
# Disc length: 1926 seconds
#
# Revision: 0
# Processed by: cddbd v1.4PL0 Copyright (c) Steve Scherf et al.
# Submitted via: ExactAudioCopy v0.90a11
#
DISCID=9207840c
DTITLE=Roy Rogers - All-Time Greatest Hits Disc 3
DYEAR=1900
DGENRE=
TTITLE0=Timber Trail
TTITLE1=The Cowboy's Lament
TTITLE2=Carry Me Back To The Lone Prairie
TTITLE3=Way Out There
TTITLE4=When The Bloom Is On The Sage
TTITLE5=The Cattle Call
TTITLE6=Along The Santa Fe Trail
TTITLE7=South Of The Border (Down Mexico Way)
TTITLE8=High Noon
TTITLE9=O Bury Me Not On The Lone Prairie
TTITLE10=Suddenly There's A Valley
TTITLE11=I Believe
EXTD=
EXTT0=
EXTT1=
EXTT2=
EXTT3=
EXTT4=
EXTT5=
EXTT6=
EXTT7=
EXTT8=
EXTT9=
EXTT10=
EXTT11=
PLAYORDER=
